<?xml version="1.0" encoding="utf-8" ?>
<svg xmlns="http://www.w3.org/2000/svg" xmlns:xlink="http://www.w3.org/1999/xlink" width="140" height="140">
	<clipPath id="cl_3">
		<rect x="20" y="20" width="100" height="100"/>
	</clipPath>
	<g clip-path="url(#cl_3)">
		<path fill="lime" transform="matrix(0.195313 0 0 0.195313 20 20)" d="M42.5 213.3L63.85 213.3L63.85 191.95L85.2 191.95L85.2 170.6L42.5 170.6L42.5 213.3ZM63.85 234.649L42.5 234.649L42.5 277.349L63.85 277.349L63.85 234.649ZM63.85 298.7L42.5 298.7L42.5 341.399L63.85 341.399L63.85 298.7ZM63.85 362.75L42.5 362.75L42.5 405.45L63.85 405.45L63.85 362.75ZM63.85 426.8L42.5 426.8L42.5 469.5L85.2 469.5L85.2 448.149L63.85 448.149L63.85 426.8ZM106.55 170.6L149.25 170.6L149.25 191.951L106.55 191.951L106.55 170.6ZM106.55 469.5L149.25 469.5L149.25 448.149L106.55 448.149L106.55 469.5ZM170.6 469.5L213.3 469.5L213.3 448.149L170.6 448.149L170.6 469.5ZM234.65 469.5L277.349 469.5L277.349 448.149L234.65 448.149L234.65 469.5ZM320.05 405.45L341.4 405.45L341.4 362.75L320.05 362.75L320.05 405.45ZM320.05 448.149L298.7 448.149L298.7 469.5L341.4 469.5L341.4 426.8L320.05 426.8L320.05 448.149ZM170.6 42.5L170.6 341.399L469.5 341.399L469.5 42.5L170.6 42.5Z"/>
	</g>
</svg>
