<svg xmlns="http://www.w3.org/2000/svg" xmlns:xlink="http://www.w3.org/1999/xlink" version="1.1" x="0px" y="0px" viewBox="0 0 128 128" style="enable-background:new 0 0 128 128;" xml:space="preserve"><style type="text/css">
	.st0{display:none;}
	.st1{display:inline;}
	.st2{fill:none;stroke:#000000;stroke-width:0.1;stroke-miterlimit:10;}
	.st3{stroke:#000000;stroke-width:4;stroke-linecap:round;stroke-miterlimit:10;}
</style><g class="st0"><g class="st1"><rect class="st2" width="128" height="128"></rect><line class="st2" x1="0" y1="124" x2="128" y2="124"></line><line class="st2" x1="0" y1="120" x2="128" y2="120"></line><line class="st2" x1="0" y1="116" x2="128" y2="116"></line><line class="st2" x1="0" y1="112" x2="128" y2="112"></line><line class="st2" x1="0" y1="108" x2="128" y2="108"></line><line class="st2" x1="0" y1="104" x2="128" y2="104"></line><line class="st2" x1="0" y1="100" x2="128" y2="100"></line><line class="st2" x1="0" y1="96" x2="128" y2="96"></line><line class="st2" x1="0" y1="92" x2="128" y2="92"></line><line class="st2" x1="0" y1="88" x2="128" y2="88"></line><line class="st2" x1="0" y1="84" x2="128" y2="84"></line><line class="st2" x1="0" y1="80" x2="128" y2="80"></line><line class="st2" x1="0" y1="76" x2="128" y2="76"></line><line class="st2" x1="0" y1="72" x2="128" y2="72"></line><line class="st2" x1="0" y1="68" x2="128" y2="68"></line><line class="st2" x1="0" y1="64" x2="128" y2="64"></line><line class="st2" x1="0" y1="60" x2="128" y2="60"></line><line class="st2" x1="0" y1="56" x2="128" y2="56"></line><line class="st2" x1="0" y1="52" x2="128" y2="52"></line><line class="st2" x1="0" y1="48" x2="128" y2="48"></line><line class="st2" x1="0" y1="44" x2="128" y2="44"></line><line class="st2" x1="0" y1="40" x2="128" y2="40"></line><line class="st2" x1="0" y1="36" x2="128" y2="36"></line><line class="st2" x1="0" y1="32" x2="128" y2="32"></line><line class="st2" x1="0" y1="28" x2="128" y2="28"></line><line class="st2" x1="0" y1="24" x2="128" y2="24"></line><line class="st2" x1="0" y1="20" x2="128" y2="20"></line><line class="st2" x1="0" y1="16" x2="128" y2="16"></line><line class="st2" x1="0" y1="12" x2="128" y2="12"></line><line class="st2" x1="0" y1="8" x2="128" y2="8"></line><line class="st2" x1="0" y1="4" x2="128" y2="4"></line><line class="st2" x1="124" y1="0" x2="124" y2="128"></line><line class="st2" x1="120" y1="0" x2="120" y2="128"></line><line class="st2" x1="116" y1="0" x2="116" y2="128"></line><line class="st2" x1="112" y1="0" x2="112" y2="128"></line><line class="st2" x1="108" y1="0" x2="108" y2="128"></line><line class="st2" x1="104" y1="0" x2="104" y2="128"></line><line class="st2" x1="100" y1="0" x2="100" y2="128"></line><line class="st2" x1="96" y1="0" x2="96" y2="128"></line><line class="st2" x1="92" y1="0" x2="92" y2="128"></line><line class="st2" x1="88" y1="0" x2="88" y2="128"></line><line class="st2" x1="84" y1="0" x2="84" y2="128"></line><line class="st2" x1="80" y1="0" x2="80" y2="128"></line><line class="st2" x1="76" y1="0" x2="76" y2="128"></line><line class="st2" x1="72" y1="0" x2="72" y2="128"></line><line class="st2" x1="68" y1="0" x2="68" y2="128"></line><line class="st2" x1="64" y1="0" x2="64" y2="128"></line><line class="st2" x1="60" y1="0" x2="60" y2="128"></line><line class="st2" x1="56" y1="0" x2="56" y2="128"></line><line class="st2" x1="52" y1="0" x2="52" y2="128"></line><line class="st2" x1="48" y1="0" x2="48" y2="128"></line><line class="st2" x1="44" y1="0" x2="44" y2="128"></line><line class="st2" x1="40" y1="0" x2="40" y2="128"></line><line class="st2" x1="36" y1="0" x2="36" y2="128"></line><line class="st2" x1="32" y1="0" x2="32" y2="128"></line><line class="st2" x1="28" y1="0" x2="28" y2="128"></line><line class="st2" x1="24" y1="0" x2="24" y2="128"></line><line class="st2" x1="20" y1="0" x2="20" y2="128"></line><line class="st2" x1="16" y1="0" x2="16" y2="128"></line><line class="st2" x1="12" y1="0" x2="12" y2="128"></line><line class="st2" x1="8" y1="0" x2="8" y2="128"></line><line class="st2" x1="4" y1="0" x2="4" y2="128"></line></g></g><g><g><path d="M10.4,56.2c-6.1,0-11,5-11,11c0,6.1,5,11,11,11s11-5,11-11C21.5,61.2,16.5,56.2,10.4,56.2z M10.4,71    c-2,0-3.7-1.7-3.7-3.7c0-2,1.7-3.7,3.7-3.7c2,0,3.7,1.7,3.7,3.7C14.1,69.3,12.5,71,10.4,71z"></path><path d="M94.6,56.2c-6.1,0-11,5-11,11c0,6.1,5,11,11,11s11-5,11-11C105.6,61.2,100.7,56.2,94.6,56.2z M94.6,71.1    c-2.1,0-3.8-1.7-3.8-3.8c0-2.1,1.7-3.8,3.8-3.8c2.1,0,3.8,1.7,3.8,3.8C98.4,69.4,96.7,71.1,94.6,71.1z"></path><path d="M85.5,72.5H19.4c-1.1,0-2-2.3-2-5.1s0.9-5.1,2-5.1h66.2c1.1,0,2,2.3,2,5.1S86.7,72.5,85.5,72.5z"></path><path d="M115.1,71.8h-10.8c-1.1,0-2-0.9-2-2s0-5.2,0-6.3s0.9-2,2-2h10.8V71.8z"></path><path d="M119,64.2h-4.4c-1.4,0-2.5,1.1-2.5,2.5s1.1,2.5,2.5,2.5h4.4c1.4,0,2.5-1.1,2.5-2.5S120.4,64.2,119,64.2z    "></path><path d="M125.5,75h-2.8c-1.7,0-3.1-1.4-3.1-3.1V61.5c0-1.7,1.4-3.1,3.1-3.1h2.8c1.7,0,3.1,1.4,3.1,3.1v10.3    C128.6,73.6,127.2,75,125.5,75z"></path><path d="M38.3,21.1V32c0,6,4.9,10.9,10.9,10.9h7.2c6,0,10.9-4.9,10.9-10.9V21.1H38.3z M47.6,35.1    c-1.7,0-3.1-1.4-3.1-3.1s1.4-3.1,3.1-3.1c1.7,0,3.1,1.4,3.1,3.1S49.3,35.1,47.6,35.1z M57.1,35.1c-1.7,0-3.1-1.4-3.1-3.1    s1.4-3.1,3.1-3.1c1.7,0,3.1,1.4,3.1,3.1S58.8,35.1,57.1,35.1z"></path><path d="M66.7,85H38.5l-8.8,21.9h45.9L66.7,85z M46.6,100.1c-1.7,0-3.1-1.4-3.1-3.1s1.4-3.1,3.1-3.1    c1.7,0,3.1,1.4,3.1,3.1S48.3,100.1,46.6,100.1z M58.1,100.1c-1.7,0-3.1-1.4-3.1-3.1s1.4-3.1,3.1-3.1c1.7,0,3.1,1.4,3.1,3.1    S59.8,100.1,58.1,100.1z"></path><polygon points="64.1,37.7 88.4,62.6 99.8,59.6 66.8,28.9   "></polygon><polygon points="40.8,37.7 16.4,62.6 5.1,59.6 38.1,28.9   "></polygon><polygon points="8.4,77 34.3,99.1 37.7,92.1 17.4,72.6   "></polygon><polygon points="95.7,77 69.8,99.1 66.4,92.1 86.7,72.6   "></polygon></g></g></svg>