<svg xmlns="http://www.w3.org/2000/svg" viewBox="0 0 100 100" x="0px" y="0px"><defs><style>.cls-1{fill:none;}</style></defs><title>telecaster_fill</title><g data-name="Livello 2"><g><rect class="cls-1" width="100" height="100"></rect><path d="M66.76,34.39c.25,3.95,5,7.89,4.67,17.25s-4.75,16-7.33,22.27-3.3,16.95-3.3,16.95H39.12a31.08,31.08,0,0,0-4.74-4.63L34.05,86l0,0a2.71,2.71,0,0,1-.9-2,2.59,2.59,0,0,1,.15-.88l0-.14,0-.05L53.15,17a.18.18,0,0,1,0-.07,9.78,9.78,0,0,1,19.35,2.29c0,.09,0,.18,0,.27q0,.54-.06,1a13.75,13.75,0,0,1-3.06,7.36C68.23,29.3,66.6,31.82,66.76,34.39Z"></path><path d="M33.09,74.8l.81-2.7a.08.08,0,0,0,0,0l-.59-2.39a.39.39,0,0,0-.27-.28l-3.32-1a.08.08,0,0,0-.09,0l-.33.46A10,10,0,0,0,27.48,75l0,.57a.08.08,0,0,0,.06.07l3.32,1a.39.39,0,0,0,.38-.09l1.81-1.68Z"></path><path d="M35.94,75.19a1,1,0,0,1-.29,0l-2.45-.73a1,1,0,1,1,.57-1.92l2.45.73a1,1,0,0,1-.29,2Z"></path><path d="M36.55,63.27l.81-2.7a.08.08,0,0,0,0,0l-.59-2.39a.39.39,0,0,0-.27-.28l-3.32-1a.08.08,0,0,0-.09,0l-.33.46a10,10,0,0,0-1.82,6.08L31,64a.08.08,0,0,0,.06.07l3.32,1a.39.39,0,0,0,.38-.09l1.81-1.68Z"></path><path d="M39.4,63.65a1,1,0,0,1-.29,0l-2.45-.73A1,1,0,0,1,37.24,61l2.45.73a1,1,0,0,1-.29,2Z"></path><path d="M40,51.74l.81-2.7a.08.08,0,0,0,0,0l-.59-2.39a.39.39,0,0,0-.27-.28l-3.32-1a.08.08,0,0,0-.09,0l-.33.46a10,10,0,0,0-1.82,6.08l0,.57a.08.08,0,0,0,.06.07l3.32,1a.39.39,0,0,0,.38-.09L40,51.77Z"></path><path d="M42.87,52.12a1,1,0,0,1-.29,0l-2.46-.73a1,1,0,1,1,.57-1.92l2.46.73a1,1,0,0,1-.29,2Z"></path><path d="M43.47,40.2l.81-2.7a.08.08,0,0,0,0,0l-.59-2.39a.39.39,0,0,0-.27-.28l-3.32-1a.08.08,0,0,0-.09,0l-.33.46a10,10,0,0,0-1.82,6.08l0,.57a.08.08,0,0,0,.06.07l3.32,1a.39.39,0,0,0,.38-.09l1.81-1.68Z"></path><path d="M46.33,40.59a1,1,0,0,1-.29,0l-2.45-.73a1,1,0,1,1,.57-1.92l2.45.73a1,1,0,0,1-.29,2Z"></path><path d="M46.93,28.67l.81-2.7a.08.08,0,0,0,0,0l-.59-2.39a.39.39,0,0,0-.27-.28l-3.32-1a.08.08,0,0,0-.09,0l-.33.46a10,10,0,0,0-1.82,6.08l0,.57a.08.08,0,0,0,.06.07l3.32,1a.39.39,0,0,0,.38-.09l1.81-1.68Z"></path><path d="M49.79,29.06a1,1,0,0,1-.29,0L47,28.28a1,1,0,1,1,.57-1.92l2.46.73a1,1,0,0,1-.29,2Z"></path><path d="M50.39,17.14l.81-2.7a.08.08,0,0,0,0,0L50.61,12a.39.39,0,0,0-.27-.28l-3.32-1a.08.08,0,0,0-.09,0l-.33.46a10,10,0,0,0-1.82,6.08l0,.57a.08.08,0,0,0,.06.07l3.32,1a.39.39,0,0,0,.38-.09l1.81-1.68Z"></path><path d="M53.25,17.52a1,1,0,0,1-.29,0l-2.45-.73a1,1,0,1,1,.57-1.92l2.45.73a1,1,0,0,1-.29,2Z"></path></g></g></svg>